<?xml version="1.0" encoding="UTF-8" standalone="no"?>
<svg width="120px" height="87px" viewBox="0 0 120 87" version="1.1" xmlns="http://www.w3.org/2000/svg" xmlns:xlink="http://www.w3.org/1999/xlink">
    <!-- Generator: sketchtool 42 (36780) - http://www.bohemiancoding.com/sketch -->
    <title>Align-Outcomes</title>
    <desc>Created with sketchtool.</desc>
    <defs></defs>
    <g id="Page-1" stroke="none" stroke-width="1" fill="none" fill-rule="evenodd">
        <g id="Outcomes-Quiz-Level-03" transform="translate(-828.000000, -242.000000)">
            <g id="Align-Outcomes" transform="translate(829.000000, 243.000000)">
                <path d="M76.3832,15.0618 C76.7672,14.2198 76.9872,13.2868 76.9872,12.2998 C76.9872,9.4888 75.2452,7.0878 72.7832,6.1068 C72.7952,5.9648 72.8052,5.8208 72.8052,5.6758 C72.8052,2.9378 70.5852,0.7178 67.8472,0.7178 C66.7642,0.7178 65.7652,1.0688 64.9492,1.6588 C63.1712,0.6058 61.0972,-0.0002 58.8812,-0.0002 C54.1282,-0.0002 50.0252,2.7788 48.1052,6.7998 C47.1942,6.3878 46.1862,6.1518 45.1222,6.1518 C41.1222,6.1518 37.8792,9.3948 37.8792,13.3948 C37.8792,13.9688 37.9532,14.5258 38.0802,15.0618 L76.3832,15.0618 Z" id="Fill-1" fill="#FFFFFF"></path>
                <path d="M76.3832,15.0618 C76.7672,14.2198 76.9872,13.2868 76.9872,12.2998 C76.9872,9.4888 75.2452,7.0878 72.7832,6.1068 C72.7952,5.9648 72.8052,5.8208 72.8052,5.6758 C72.8052,2.9378 70.5852,0.7178 67.8472,0.7178 C66.7642,0.7178 65.7652,1.0688 64.9492,1.6588 C63.1712,0.6058 61.0972,-0.0002 58.8812,-0.0002 C54.1282,-0.0002 50.0252,2.7788 48.1052,6.7998 C47.1942,6.3878 46.1862,6.1518 45.1222,6.1518 C41.1222,6.1518 37.8792,9.3948 37.8792,13.3948 C37.8792,13.9688 37.9532,14.5258 38.0802,15.0618 L76.3832,15.0618 Z" id="Stroke-3" stroke="#CED3D7" stroke-width="2" stroke-linecap="round"></path>
                <path d="M117.3902,22.614 C117.4052,22.386 117.4152,22.157 117.4152,21.926 C117.4152,16.223 112.7922,11.599 107.0892,11.599 C105.1762,11.599 103.3852,12.122 101.8492,13.029 C100.6732,10.299 97.9602,8.387 94.7992,8.387 C90.8362,8.387 87.5752,11.392 87.1692,15.248 C86.8632,15.2 86.5522,15.168 86.2332,15.168 C82.9242,15.168 80.2412,17.851 80.2412,21.16 C80.2412,21.662 80.3102,22.148 80.4262,22.614 L117.3902,22.614 Z" id="Fill-5" fill="#FFFFFF"></path>
                <path d="M117.3902,22.614 C117.4052,22.386 117.4152,22.157 117.4152,21.926 C117.4152,16.223 112.7922,11.599 107.0892,11.599 C105.1762,11.599 103.3852,12.122 101.8492,13.029 C100.6732,10.299 97.9602,8.387 94.7992,8.387 C90.8362,8.387 87.5752,11.392 87.1692,15.248 C86.8632,15.2 86.5522,15.168 86.2332,15.168 C82.9242,15.168 80.2412,17.851 80.2412,21.16 C80.2412,21.662 80.3102,22.148 80.4262,22.614 L117.3902,22.614 Z" id="Stroke-7" stroke="#CED3D7" stroke-width="2" stroke-linecap="round"></path>
                <path d="M83.4021,84.7354 C82.1731,84.7354 80.9671,84.1454 80.2281,83.0504 L56.0641,47.2894 L31.9011,83.0504 C30.7191,84.8014 28.3391,85.2624 26.5881,84.0794 C24.8371,82.8964 24.3761,80.5174 25.5601,78.7664 L56.0641,33.6184 L86.5691,78.7664 C87.7521,80.5174 87.2921,82.8964 85.5411,84.0794 C84.8841,84.5234 84.1391,84.7354 83.4021,84.7354" id="Fill-9" fill="#E5E8EA"></path>
                <path d="M83.4021,84.7354 C82.1731,84.7354 80.9671,84.1454 80.2281,83.0504 L56.0641,47.2894 L31.9011,83.0504 C30.7191,84.8014 28.3391,85.2624 26.5881,84.0794 C24.8371,82.8964 24.3761,80.5174 25.5601,78.7664 L56.0641,33.6184 L86.5691,78.7664 C87.7521,80.5174 87.2921,82.8964 85.5411,84.0794 C84.8841,84.5234 84.1391,84.7354 83.4021,84.7354 Z" id="Stroke-11" stroke="#3F5463" stroke-width="2"></path>
                <path d="M83.3983,49.2011 C83.3983,64.2971 71.1603,76.5351 56.0643,76.5351 C40.9683,76.5351 28.7303,64.2971 28.7303,49.2011 C28.7303,34.1051 40.9683,21.8671 56.0643,21.8671 C71.1603,21.8671 83.3983,34.1051 83.3983,49.2011" id="Fill-13" fill="#FFFFFF"></path>
                <path d="M83.3983,49.2011 C83.3983,64.2971 71.1603,76.5351 56.0643,76.5351 C40.9683,76.5351 28.7303,64.2971 28.7303,49.2011 C28.7303,34.1051 40.9683,21.8671 56.0643,21.8671 C71.1603,21.8671 83.3983,34.1051 83.3983,49.2011 Z" id="Stroke-15" stroke="#3F5463" stroke-width="2"></path>
                <path d="M76.2915,49.2011 C76.2915,60.3721 67.2355,69.4281 56.0645,69.4281 C44.8935,69.4281 35.8375,60.3721 35.8375,49.2011 C35.8375,38.0301 44.8935,28.9741 56.0645,28.9741 C67.2355,28.9741 76.2915,38.0301 76.2915,49.2011" id="Fill-17" fill="#F1060F"></path>
                <path d="M76.2915,49.2011 C76.2915,60.3721 67.2355,69.4281 56.0645,69.4281 C44.8935,69.4281 35.8375,60.3721 35.8375,49.2011 C35.8375,38.0301 44.8935,28.9741 56.0645,28.9741 C67.2355,28.9741 76.2915,38.0301 76.2915,49.2011 Z" id="Stroke-19" stroke="#3F5463" stroke-width="2"></path>
                <path d="M69.1847,49.2011 C69.1847,56.4471 63.3107,62.3211 56.0647,62.3211 C48.8187,62.3211 42.9437,56.4471 42.9437,49.2011 C42.9437,41.9551 48.8187,36.0811 56.0647,36.0811 C63.3107,36.0811 69.1847,41.9551 69.1847,49.2011" id="Fill-21" fill="#FFFFFF"></path>
                <path d="M69.1847,49.2011 C69.1847,56.4471 63.3107,62.3211 56.0647,62.3211 C48.8187,62.3211 42.9437,56.4471 42.9437,49.2011 C42.9437,41.9551 48.8187,36.0811 56.0647,36.0811 C63.3107,36.0811 69.1847,41.9551 69.1847,49.2011 Z" id="Stroke-23" stroke="#3F5463" stroke-width="2"></path>
                <path d="M62.6246,49.2011 C62.6246,52.8241 59.6876,55.7611 56.0646,55.7611 C52.4416,55.7611 49.5046,52.8241 49.5046,49.2011 C49.5046,45.5781 52.4416,42.6411 56.0646,42.6411 C59.6876,42.6411 62.6246,45.5781 62.6246,49.2011" id="Fill-25" fill="#F1060F"></path>
                <path d="M62.6246,49.2011 C62.6246,52.8241 59.6876,55.7611 56.0646,55.7611 C52.4416,55.7611 49.5046,52.8241 49.5046,49.2011 C49.5046,45.5781 52.4416,42.6411 56.0646,42.6411 C59.6876,42.6411 62.6246,45.5781 62.6246,49.2011 Z" id="Stroke-27" stroke="#3F5463" stroke-width="2"></path>
                <path d="M41.8548,22.3455 C42.3988,21.2135 42.7118,19.9495 42.7118,18.6095 C42.7118,13.8305 38.8368,9.9555 34.0578,9.9555 C30.0548,9.9555 26.6968,12.6755 25.7078,16.3655 C24.9068,16.0665 24.0518,15.8835 23.1598,15.8335 C23.1598,15.8245 23.1618,15.8165 23.1618,15.8075 C23.1618,11.2005 19.4258,7.4645 14.8188,7.4645 C11.3518,7.4645 8.3798,9.5795 7.1198,12.5895 C3.0738,13.3145 -0.0002,16.8455 -0.0002,21.1005 C-0.0002,21.5245 0.0408,21.9375 0.0998,22.3455 L41.8548,22.3455 Z" id="Fill-29" fill="#FFFFFF"></path>
                <path d="M41.8548,22.3455 C42.3988,21.2135 42.7118,19.9495 42.7118,18.6095 C42.7118,13.8305 38.8368,9.9555 34.0578,9.9555 C30.0548,9.9555 26.6968,12.6755 25.7078,16.3655 C24.9068,16.0665 24.0518,15.8835 23.1598,15.8335 C23.1598,15.8245 23.1618,15.8165 23.1618,15.8075 C23.1618,11.2005 19.4258,7.4645 14.8188,7.4645 C11.3518,7.4645 8.3798,9.5795 7.1198,12.5895 C3.0738,13.3145 -0.0002,16.8455 -0.0002,21.1005 C-0.0002,21.5245 0.0408,21.9375 0.0998,22.3455 L41.8548,22.3455 Z" id="Stroke-31" stroke="#CED3D7" stroke-width="2" stroke-linecap="round"></path>
                <polygon id="Fill-33" fill="#3F5463" points="63.6348 42.0222 63.6348 14.5762 73.6558 24.5972 88.2758 9.9782 95.6788 17.3812 81.0588 32.0012 91.0818 42.0222"></polygon>
                <path d="M88.2754,7.8569 L86.1544,9.9779 L73.6564,22.4759 L67.2554,16.0759 L62.1344,10.9549 L62.1344,18.1969 L62.1344,40.5229 L62.1344,43.5229 L65.1344,43.5229 L87.4594,43.5229 L94.7024,43.5229 L89.5804,38.4009 L83.1804,32.0009 L95.6784,19.5029 L97.8004,17.3819 L95.6784,15.2599 L90.3964,9.9779 L88.2754,7.8569 Z M88.2754,12.0999 L93.5574,17.3819 L78.9384,32.0009 L87.4594,40.5229 L65.1344,40.5229 L65.1344,18.1969 L73.6564,26.7189 L88.2754,12.0999 Z" id="Fill-35" fill="#FFFFFF"></path>
            </g>
        </g>
    </g>
</svg>