<?xml version="1.0" encoding="UTF-8" standalone="no"?>
<svg width="70px" height="96px" viewBox="0 0 70 96" version="1.1" xmlns="http://www.w3.org/2000/svg" xmlns:xlink="http://www.w3.org/1999/xlink">
    <!-- Generator: sketchtool 42 (36780) - http://www.bohemiancoding.com/sketch -->
    <title>ClipBoard</title>
    <desc>Created with sketchtool.</desc>
    <defs>
        <polygon id="path-1" points="0 96 70 96 70 0 0 0"></polygon>
    </defs>
    <g id="Page-1" stroke="none" stroke-width="1" fill="none" fill-rule="evenodd">
        <g id="Outcomes-Quiz-Level-02" transform="translate(-875.000000, -206.000000)">
            <g id="ClipBoard" transform="translate(875.000000, 206.000000)">
                <path d="M65,95 L5,95 C2.791,95 1,93.209 1,91 L1,22 C1,19.791 2.791,18 5,18 L65,18 C67.209,18 69,19.791 69,22 L69,91 C69,93.209 67.209,95 65,95 Z" id="Fill-1" fill="#F7F8F7"></path>
                <path d="M65,95 L5,95 C2.791,95 1,93.209 1,91 L1,22 C1,19.791 2.791,18 5,18 L65,18 C67.209,18 69,19.791 69,22 L69,91 C69,93.209 67.209,95 65,95 Z" id="Stroke-3" stroke="#3F5463" stroke-width="2"></path>
                <mask id="mask-2" fill="white">
                    <use xlink:href="#path-1"></use>
                </mask>
                <g id="Clip-6"></g>
                <polygon id="Fill-5" fill="#FFFFFF" mask="url(#mask-2)" points="9 46 22 46 22 33 9 33"></polygon>
                <polygon id="Stroke-7" stroke="#3F5463" stroke-width="2" mask="url(#mask-2)" points="9 46 22 46 22 33 9 33"></polygon>
                <polygon id="Fill-8" fill="#3F5463" mask="url(#mask-2)" points="28 36 51 36 51 33 28 33"></polygon>
                <polygon id="Fill-9" fill="#3F5463" mask="url(#mask-2)" points="28 46 42 46 42 43 28 43"></polygon>
                <polygon id="Fill-10" fill="#3F5463" mask="url(#mask-2)" points="28 41 59 41 59 38 28 38"></polygon>
                <polyline id="Stroke-11" stroke="#00B517" stroke-width="2" mask="url(#mask-2)" points="12 39 15 41.655 19.398 36.39"></polyline>
                <polygon id="Fill-12" fill="#FFFFFF" mask="url(#mask-2)" points="9 67 22 67 22 54 9 54"></polygon>
                <polygon id="Stroke-13" stroke="#3F5463" stroke-width="2" mask="url(#mask-2)" points="9 67 22 67 22 54 9 54"></polygon>
                <polygon id="Fill-14" fill="#3F5463" mask="url(#mask-2)" points="28 57 51 57 51 54 28 54"></polygon>
                <polygon id="Fill-15" fill="#3F5463" mask="url(#mask-2)" points="28 77 51 77 51 74 28 74"></polygon>
                <polygon id="Fill-16" fill="#3F5463" mask="url(#mask-2)" points="28 67 42 67 42 64 28 64"></polygon>
                <polygon id="Fill-17" fill="#3F5463" mask="url(#mask-2)" points="28 62 59 62 59 59 28 59"></polygon>
                <polyline id="Stroke-18" stroke="#00B517" stroke-width="2" mask="url(#mask-2)" points="12 60 15 62.655 19.398 57.39"></polyline>
                <polygon id="Fill-19" fill="#FFFFFF" mask="url(#mask-2)" points="9 87 22 87 22 74 9 74"></polygon>
                <polygon id="Stroke-20" stroke="#3F5463" stroke-width="2" mask="url(#mask-2)" points="9 87 22 87 22 74 9 74"></polygon>
                <polygon id="Fill-21" fill="#3F5463" mask="url(#mask-2)" points="28 87 42 87 42 84 28 84"></polygon>
                <polygon id="Fill-22" fill="#3F5463" mask="url(#mask-2)" points="28 82 59 82 59 79 28 79"></polygon>
                <polyline id="Stroke-23" stroke="#00B517" stroke-width="2" mask="url(#mask-2)" points="12 80 15 82.655 19.398 77.39"></polyline>
                <path d="M55.8742,25 L14.1262,25 C12.6662,25 11.6982,23.487 12.3102,22.162 L17.0002,12 L53.0002,12 L57.6902,22.162 C58.3022,23.487 57.3342,25 55.8742,25" id="Fill-24" fill="#C0C6CB" mask="url(#mask-2)"></path>
                <path d="M55.8742,25 L14.1262,25 C12.6662,25 11.6982,23.487 12.3102,22.162 L17.0002,12 L53.0002,12 L57.6902,22.162 C58.3022,23.487 57.3342,25 55.8742,25 Z" id="Stroke-25" stroke="#3F5463" stroke-width="2" mask="url(#mask-2)"></path>
                <path d="M35,1 C24,1 24,12 24,12 L46,12 C46,12 44.667,1 35,1" id="Fill-26" fill="#E5E8EA" mask="url(#mask-2)"></path>
                <path d="M35,1 C24,1 24,12 24,12 L46,12 C46,12 44.667,1 35,1 Z" id="Stroke-27" stroke="#3F5463" stroke-width="2" mask="url(#mask-2)"></path>
                <path d="M36.6667,6.5514 C36.6667,7.6564 35.7717,8.5514 34.6667,8.5514 C33.5617,8.5514 32.6667,7.6564 32.6667,6.5514 C32.6667,5.4464 33.5617,4.5514 34.6667,4.5514 C35.7717,4.5514 36.6667,5.4464 36.6667,6.5514" id="Fill-28" fill="#3F5463" mask="url(#mask-2)"></path>
            </g>
        </g>
    </g>
</svg>
