<?xml version="1.0" encoding="UTF-8"?>
<svg width="138px" height="88px" viewBox="0 0 138 88" version="1.1" xmlns="http://www.w3.org/2000/svg" xmlns:xlink="http://www.w3.org/1999/xlink">
    <!-- Generator: Sketch 45.1 (43504) - http://www.bohemiancoding.com/sketch -->
    <title>Early-Graphic</title>
    <desc>Created with Sketch.</desc>
    <defs></defs>
    <g id="Page-1" stroke="none" stroke-width="1" fill="none" fill-rule="evenodd">
        <g id="Stats-By-Students-09@2x" transform="translate(-638.000000, -238.000000)">
            <g id="Early-Graphic" transform="translate(639.000000, 239.000000)">
                <path d="M135.7279,33.8555 C135.7279,27.6965 130.1809,25.8815 130.1809,25.8815 C130.1809,25.8815 135.7279,24.3385 135.7279,18.1805 C135.7279,12.0215 130.1809,10.2805 130.1809,10.2805 L17.8539,10.2805 L17.8539,60.8975 L71.2439,60.8975 L71.2439,62.9775 C71.2439,67.1545 73.8869,70.7045 77.5879,72.0735 L103.2079,85.9145 C103.2079,85.9145 109.7029,87.3945 113.0889,81.1265 C114.9439,77.6925 114.3749,74.6955 113.4829,72.6845 L130.1809,72.7215 C130.1809,72.7215 135.7279,71.1785 135.7279,65.0205 C135.7279,58.8615 130.1809,57.0465 130.1809,57.0465 C130.1809,57.0465 135.7279,55.5035 135.7279,49.3455 C135.7279,43.7915 131.2299,41.8355 130.3429,41.5035 C131.2299,41.2045 135.7279,39.4095 135.7279,33.8555" id="Fill-1" fill="#FED2B8"></path>
                <path d="M135.7279,33.8555 C135.7279,27.6965 130.1809,25.8815 130.1809,25.8815 C130.1809,25.8815 135.7279,24.3385 135.7279,18.1805 C135.7279,12.0215 130.1809,10.2805 130.1809,10.2805 L17.8539,10.2805 L17.8539,60.8975 L71.2439,60.8975 L71.2439,62.9775 C71.2439,67.1545 73.8869,70.7045 77.5879,72.0735 L103.2079,85.9145 C103.2079,85.9145 109.7029,87.3945 113.0889,81.1265 C114.9439,77.6925 114.3749,74.6955 113.4829,72.6845 L130.1809,72.7215 C130.1809,72.7215 135.7279,71.1785 135.7279,65.0205 C135.7279,58.8615 130.1809,57.0465 130.1809,57.0465 C130.1809,57.0465 135.7279,55.5035 135.7279,49.3455 C135.7279,43.7915 131.2299,41.8355 130.3429,41.5035 C131.2299,41.2045 135.7279,39.4095 135.7279,33.8555 Z" id="Stroke-3" stroke="#FD6A11" stroke-width="2"></path>
                <path d="M64.2171,64.2442 L40.8291,64.2442 C39.7241,64.2442 38.8291,63.3492 38.8291,62.2442 L38.8291,9.6272 C38.8291,8.5222 39.7241,7.6272 40.8291,7.6272 L64.2171,7.6272 C65.3211,7.6272 66.2171,8.5222 66.2171,9.6272 L66.2171,62.2442 C66.2171,63.3492 65.3211,64.2442 64.2171,64.2442" id="Fill-5" fill="#75848F"></path>
                <path d="M64.2171,64.2442 L40.8291,64.2442 C39.7241,64.2442 38.8291,63.3492 38.8291,62.2442 L38.8291,9.6272 C38.8291,8.5222 39.7241,7.6272 40.8291,7.6272 L64.2171,7.6272 C65.3211,7.6272 66.2171,8.5222 66.2171,9.6272 L66.2171,62.2442 C66.2171,63.3492 65.3211,64.2442 64.2171,64.2442 Z" id="Stroke-7" stroke="#3F5463" stroke-width="2"></path>
                <path d="M25.388,64.2442 L2,64.2442 C0.895,64.2442 0,63.3492 0,62.2442 L0,2.0002 C0,0.8952 0.895,0.0002 2,0.0002 L25.388,0.0002 C26.493,0.0002 27.388,0.8952 27.388,2.0002 L27.388,62.2442 C27.388,63.3492 26.493,64.2442 25.388,64.2442" id="Fill-9" fill="#F4F5F6"></path>
                <path d="M25.388,64.2442 L2,64.2442 C0.895,64.2442 0,63.3492 0,62.2442 L0,2.0002 C0,0.8952 0.895,0.0002 2,0.0002 L25.388,0.0002 C26.493,0.0002 27.388,0.8952 27.388,2.0002 L27.388,62.2442 C27.388,63.3492 26.493,64.2442 25.388,64.2442 Z" id="Stroke-11" stroke="#778690" stroke-width="2"></path>
                <path d="M71.244,35.2422 C71.244,45.5812 62.862,53.9632 52.523,53.9632 C42.183,53.9632 33.802,45.5812 33.802,35.2422 C33.802,24.9032 42.183,16.5212 52.523,16.5212 C62.862,16.5212 71.244,24.9032 71.244,35.2422" id="Fill-13" fill="#75848F"></path>
                <path d="M71.244,35.2422 C71.244,45.5812 62.862,53.9632 52.523,53.9632 C42.183,53.9632 33.802,45.5812 33.802,35.2422 C33.802,24.9032 42.183,16.5212 52.523,16.5212 C62.862,16.5212 71.244,24.9032 71.244,35.2422 Z" id="Stroke-15" stroke="#3F5463" stroke-width="2"></path>
                <path d="M68.1239,35.2422 C68.1239,43.8582 61.1389,50.8432 52.5229,50.8432 C43.9069,50.8432 36.9219,43.8582 36.9219,35.2422 C36.9219,26.6262 43.9069,19.6412 52.5229,19.6412 C61.1389,19.6412 68.1239,26.6262 68.1239,35.2422" id="Fill-17" fill="#FFFFFF"></path>
                <path d="M68.1239,35.2422 C68.1239,43.8582 61.1389,50.8432 52.5229,50.8432 C43.9069,50.8432 36.9219,43.8582 36.9219,35.2422 C36.9219,26.6262 43.9069,19.6412 52.5229,19.6412 C61.1389,19.6412 68.1239,26.6262 68.1239,35.2422 Z" id="Stroke-19" stroke="#3F5463" stroke-width="2"></path>
                <path d="M52.5228,19.6416 L52.5228,23.8936" id="Stroke-21" stroke="#3F5463" stroke-width="3"></path>
                <path d="M52.5228,46.5909 L52.5228,50.8429" id="Stroke-23" stroke="#3F5463" stroke-width="3"></path>
                <path d="M36.9222,35.2422 L41.1742,35.2422" id="Stroke-25" stroke="#3F5463" stroke-width="3"></path>
                <path d="M63.8714,35.2422 L68.1234,35.2422" id="Stroke-27" stroke="#3F5463" stroke-width="3"></path>
                <path d="M47.6693,23.9752 L52.5233,35.2422" id="Stroke-29" stroke="#3F5463" stroke-width="3" stroke-linecap="round"></path>
                <path d="M58.7635,40.5504 L52.5225,35.2424" id="Stroke-31" stroke="#3F5463" stroke-width="3" stroke-linecap="round"></path>
                <path d="M58.0701,46.3365 L52.5231,35.2425" id="Stroke-33" stroke="#F1070F" stroke-linecap="round"></path>
                <path d="M55.2962,35.2422 C55.2962,36.7742 54.0542,38.0152 52.5232,38.0152 C50.9912,38.0152 49.7492,36.7742 49.7492,35.2422 C49.7492,33.7102 50.9912,32.4692 52.5232,32.4692 C54.0542,32.4692 55.2962,33.7102 55.2962,35.2422" id="Fill-35" fill="#96A0A8"></path>
                <path d="M55.2962,35.2422 C55.2962,36.7742 54.0542,38.0152 52.5232,38.0152 C50.9912,38.0152 49.7492,36.7742 49.7492,35.2422 C49.7492,33.7102 50.9912,32.4692 52.5232,32.4692 C54.0542,32.4692 55.2962,33.7102 55.2962,35.2422 Z" id="Stroke-37" stroke="#3F5463" stroke-width="2"></path>
                <path d="M17.8543,9.0098 C17.8543,11.3708 15.9393,13.2858 13.5783,13.2858 C11.2173,13.2858 9.3023,11.3708 9.3023,9.0098 C9.3023,6.6488 11.2173,4.7338 13.5783,4.7338 C15.9393,4.7338 17.8543,6.6488 17.8543,9.0098" id="Fill-39" fill="#FFFFFF"></path>
                <path d="M17.8543,9.0098 C17.8543,11.3708 15.9393,13.2858 13.5783,13.2858 C11.2173,13.2858 9.3023,11.3708 9.3023,9.0098 C9.3023,6.6488 11.2173,4.7338 13.5783,4.7338 C15.9393,4.7338 17.8543,6.6488 17.8543,9.0098 Z" id="Stroke-41" stroke="#778690" stroke-width="2"></path>
                <path d="M113.4828,72.6846 L104.1648,72.6846" id="Stroke-43" stroke="#FD6A11" stroke-width="2" stroke-linecap="round"></path>
            </g>
        </g>
    </g>
</svg>