<?xml version="1.0" encoding="UTF-8"?>
<svg width="70px" height="96px" viewBox="0 0 70 96" version="1.1" xmlns="http://www.w3.org/2000/svg" xmlns:xlink="http://www.w3.org/1999/xlink">
    <!-- Generator: Sketch 46.1 (44463) - http://www.bohemiancoding.com/sketch -->
    <title>Page 1</title>
    <desc>Created with Sketch.</desc>
    <defs></defs>
    <g id="Grade" stroke="none" stroke-width="1" fill="none" fill-rule="evenodd">
        <g id="Header-Menu-01" transform="translate(-774.000000, -463.000000)">
            <g id="Page-1" transform="translate(774.000000, 463.000000)">
                <path d="M65,95 L5,95 C2.791,95 1,93.209 1,91 L1,22 C1,19.791 2.791,18 5,18 L65,18 C67.209,18 69,19.791 69,22 L69,91 C69,93.209 67.209,95 65,95 Z" id="Fill-1" fill="#F6F7F6"></path>
                <path d="M5,19 C3.346,19 2,20.346 2,22 L2,91 C2,92.654 3.346,94 5,94 L65,94 C66.654,94 68,92.654 68,91 L68,22 C68,20.346 66.654,19 65,19 L5,19 Z M65,96 L5,96 C2.243,96 0,93.757 0,91 L0,22 C0,19.243 2.243,17 5,17 L65,17 C67.757,17 70,19.243 70,22 L70,91 C70,93.757 67.757,96 65,96 L65,96 Z" id="Fill-3" fill="#3F5463"></path>
                <polygon id="Clip-6" points="0 96 70 96 70 0 0 0"></polygon>
                <polygon id="Fill-5" fill="#FFFFFF" points="7 89 63.5 89 63.5 24.213 7 24.213"></polygon>
                <polygon id="Fill-7" fill="#6F7F8A" points="9 90 6 90 6 87 8 87 8 88 9 88"></polygon>
                <path d="M6,34.317 L8,34.317 L8,30.264 L6,30.264 L6,34.317 Z M6,42.423 L8,42.423 L8,38.37 L6,38.37 L6,42.423 Z M6,50.527 L8,50.527 L8,46.474 L6,46.474 L6,50.527 Z M6,58.633 L8,58.633 L8,54.58 L6,54.58 L6,58.633 Z M6,66.737 L8,66.737 L8,62.684 L6,62.684 L6,66.737 Z M6,74.843 L8,74.843 L8,70.79 L6,70.79 L6,74.843 Z M6,82.947 L8,82.947 L8,78.894 L6,78.894 L6,82.947 Z" id="Fill-8" fill="#6F7F8A"></path>
                <polygon id="Fill-9" fill="#6F7F8A" points="8 26.2129 6 26.2129 6 23.2129 9 23.2129 9 25.2129 8 25.2129"></polygon>
                <path d="M13.038,25.213 L17.077,25.213 L17.077,23.213 L13.038,23.213 L13.038,25.213 Z M21.116,25.213 L25.154,25.213 L25.154,23.213 L21.116,23.213 L21.116,25.213 Z M29.192,25.213 L33.231,25.213 L33.231,23.213 L29.192,23.213 L29.192,25.213 Z M37.27,25.213 L41.308,25.213 L41.308,23.213 L37.27,23.213 L37.27,25.213 Z M45.346,25.213 L49.385,25.213 L49.385,23.213 L45.346,23.213 L45.346,25.213 Z M53.423,25.213 L57.461,25.213 L57.461,23.213 L53.423,23.213 L53.423,25.213 Z" id="Fill-10" fill="#6F7F8A"></path>
                <polygon id="Fill-11" fill="#6F7F8A" points="64.5 26.2129 62.5 26.2129 62.5 25.2129 61.5 25.2129 61.5 23.2129 64.5 23.2129"></polygon>
                <path d="M62.5,34.318 L64.5,34.318 L64.5,30.265 L62.5,30.265 L62.5,34.318 Z M62.5,42.423 L64.5,42.423 L64.5,38.37 L62.5,38.37 L62.5,42.423 Z M62.5,50.528 L64.5,50.528 L64.5,46.475 L62.5,46.475 L62.5,50.528 Z M62.5,58.633 L64.5,58.633 L64.5,54.58 L62.5,54.58 L62.5,58.633 Z M62.5,66.738 L64.5,66.738 L64.5,62.685 L62.5,62.685 L62.5,66.738 Z M62.5,74.843 L64.5,74.843 L64.5,70.79 L62.5,70.79 L62.5,74.843 Z M62.5,82.948 L64.5,82.948 L64.5,78.895 L62.5,78.895 L62.5,82.948 Z" id="Fill-12" fill="#6F7F8A"></path>
                <polygon id="Fill-13" fill="#6F7F8A" points="64.5 90 61.5 90 61.5 88 62.5 88 62.5 87 64.5 87"></polygon>
                <path d="M13.039,90 L17.077,90 L17.077,88 L13.039,88 L13.039,90 Z M21.115,90 L25.154,90 L25.154,88 L21.115,88 L21.115,90 Z M29.192,90 L33.23,90 L33.23,88 L29.192,88 L29.192,90 Z M37.269,90 L41.308,90 L41.308,88 L37.269,88 L37.269,90 Z M45.346,90 L49.384,90 L49.384,88 L45.346,88 L45.346,90 Z M53.422,90 L57.461,90 L57.461,88 L53.422,88 L53.422,90 Z" id="Fill-14" fill="#6F7F8A"></path>
                <path d="M55.874,25 L14.126,25 C12.666,25 11.698,23.487 12.31,22.162 L17,12 L53,12 L57.69,22.162 C58.302,23.487 57.334,25 55.874,25" id="Fill-15" fill="#C0C6CB"></path>
                <path d="M35,1 C24,1 24,12 24,12 L46,12 C46,12 44.667,1 35,1" id="Fill-16" fill="#E5E7E9"></path>
                <path d="M56.7168,23.5391 C56.5298,23.8321 56.2218,24.0001 55.8738,24.0001 L14.1258,24.0001 C13.7778,24.0001 13.4708,23.8321 13.2828,23.5391 C13.0958,23.2461 13.0718,22.8971 13.2178,22.5811 L17.6398,13.0001 L22.9998,13.0001 L47.1288,13.0001 L52.3608,13.0001 L56.7818,22.5811 C56.9278,22.8971 56.9038,23.2461 56.7168,23.5391 M34.9998,2.0001 C41.9988,2.0001 44.1898,8.3541 44.7988,11.0001 L25.0708,11.0001 C25.3688,8.4541 26.9228,2.0001 34.9998,2.0001 M58.5978,21.7431 L53.6398,11.0001 L46.8328,11.0001 C46.2418,8.2521 43.7408,0.0001 34.9998,0.0001 C25.1878,0.0001 23.3998,8.1221 23.0738,11.0001 L16.3608,11.0001 L11.4028,21.7431 C10.9708,22.6771 11.0448,23.7511 11.5988,24.6171 C12.1528,25.4821 13.0978,26.0001 14.1258,26.0001 L55.8738,26.0001 C56.9028,26.0001 57.8468,25.4821 58.4018,24.6171 C58.9558,23.7511 59.0288,22.6771 58.5978,21.7431" id="Fill-17" fill="#3F5463"></path>
                <path d="M34.6665,4.5513 C33.5625,4.5513 32.6665,5.4473 32.6665,6.5513 C32.6665,7.6563 33.5625,8.5513 34.6665,8.5513 C35.7715,8.5513 36.6665,7.6563 36.6665,6.5513 C36.6665,5.4473 35.7715,4.5513 34.6665,4.5513" id="Fill-18" fill="#3F5463"></path>
                <path d="M30.9067,46.5908 C30.9067,44.0688 28.8617,42.0228 26.3387,42.0228 C23.8157,42.0228 21.7707,44.0688 21.7707,46.5908 C21.7707,49.1138 23.8157,51.1588 26.3387,51.1588 C28.8617,51.1588 30.9067,49.1138 30.9067,46.5908" id="Fill-19" fill="#6F7F8A"></path>
                <path d="M44.3389,42.0225 C41.8159,42.0225 39.7709,44.0685 39.7709,46.5905 C39.7709,49.1145 41.8159,51.1595 44.3389,51.1595 C46.8619,51.1595 48.9069,49.1145 48.9069,46.5905 C48.9069,44.0685 46.8619,42.0225 44.3389,42.0225" id="Fill-20" fill="#6F7F8A"></path>
                <path d="M43.5,65.8936 L27,65.8936 C25.896,65.8936 25,66.7896 25,67.8936 C25,68.9976 25.896,69.8936 27,69.8936 L43.5,69.8936 C44.604,69.8936 45.5,68.9976 45.5,67.8936 C45.5,66.7896 44.604,65.8936 43.5,65.8936" id="Fill-21" fill="#6F7F8A"></path>
            </g>
        </g>
    </g>
</svg>